<mxfile host="65bd71144e">
    <diagram id="prikEVDUGFJbuSPVFO2Q" name="PÃ¡gina-1">
        <mxGraphModel dx="133" dy="403" grid="1" gridSize="10" guides="1" tooltips="1" connect="1" arrows="1" fold="1" page="1" pageScale="1" pageWidth="827" pageHeight="1169" math="0" shadow="0">
            <root>
                <mxCell id="0"/>
                <mxCell id="1" parent="0"/>
                <mxCell id="2" value="" style="shape=image;verticalLabelPosition=bottom;labelBackgroundColor=default;verticalAlign=top;aspect=fixed;imageAspect=0;image=https://github.com/rangy25/estructuras_condicionales-/blob/main/numeros_enteros/diagrama.png?raw=true;" vertex="1" parent="1">
                    <mxGeometry x="40" y="190" width="315" height="520" as="geometry"/>
                </mxCell>
            </root>
        </mxGraphModel>
    </diagram>
</mxfile>